o bottom
v -0.062500 0.000000 0.062500
v -0.062500 1.000000 0.062500
v -0.062500 0.000000 -0.062500
v -0.062500 1.000000 -0.062500
v 0.062500 0.000000 0.062500
v 0.062500 1.000000 0.062500
v 0.062500 0.000000 -0.062500
v 0.062500 1.000000 -0.062500
v -0.031250 0.999500 0.031250
v -0.031250 0.999500 -0.031250
v 0.031250 0.999500 0.031250
v 0.031250 0.999500 -0.031250
v -0.031250 0.000000 0.031250
v -0.031250 0.000000 -0.031250
v 0.031250 0.000000 0.031250
v 0.031250 0.000000 -0.031250
v -1.060660 0.000000 1.060660
v 1.060660 0.000000 -1.060660
v -1.060660 1.000000 1.060660
v 1.060660 1.000000 -1.060660
v -1.060660 0.000000 -1.060660
v 1.060660 0.000000 1.060660
v -1.060660 1.000000 -1.060660
v 1.060660 1.000000 1.060660
v -0.062139 0.002887 0.062139
v -0.062139 0.997111 0.062139
v -0.062139 0.002887 -0.062139
v -0.062139 0.997111 -0.062139
v 0.062139 0.002887 0.062139
v 0.062139 0.997111 0.062139
v 0.062139 0.002887 -0.062139
v 0.062139 0.997111 -0.062139
v -0.031439 0.994980 0.031439
v -0.031439 0.994980 -0.031439
v 0.031439 0.994980 0.031439
v 0.031439 0.994980 -0.031439
v -0.031438 0.004523 0.031438
v -0.031438 0.004523 -0.031438
v 0.031438 0.004523 0.031438
v 0.031438 0.004523 -0.031438
v -1.061102 0.000000 1.060218
v 1.060218 0.000000 -1.061102
v -1.061102 1.000000 1.060218
v 1.060218 1.000000 -1.061102
v -1.060218 0.000000 -1.061102
v 1.061102 0.000000 1.060218
v -1.060218 1.000000 -1.061102
v 1.061102 1.000000 1.060218
vt 0.953125 0.718750
vt 0.953125 0.968750
vt 0.968750 0.968750
vt 0.968750 0.718750
vt 0.953125 0.718750
vt 0.953125 0.968750
vt 0.968750 0.968750
vt 0.968750 0.718750
vt 0.953125 0.968750
vt 0.953125 0.718750
vt 0.968750 0.718750
vt 0.968750 0.968750
vt 0.968750 1.000000
vt 0.953125 1.000000
vt 0.957031 0.992188
vt 0.964844 0.992188
vt 0.964844 0.976562
vt 0.957031 0.976562
vt 0.968750 1.000000
vt 0.984375 1.000000
vt 0.980469 0.992188
vt 0.972656 0.992188
vt 0.968750 0.968750
vt 0.972656 0.976562
vt 0.984375 0.968750
vt 0.980469 0.976562
vt 0.980469 0.968750
vt 0.980469 0.718750
vt 0.972656 0.718750
vt 0.972656 0.968750
vt 0.972656 0.968750
vt 0.972656 0.718750
vt 0.972656 0.968750
vt 0.972656 0.718750
vt 0.980469 0.718750
vt 0.980469 0.968750
vt 0.980469 0.968750
vt 0.980469 0.718750
vt 0.000000 0.250000
vt 0.375000 0.250000
vt 0.375000 0.500000
vt 0.000000 0.500000
vt 0.000000 0.250000
vt 0.375000 0.250000
vt 0.375000 0.500000
vt 0.000000 0.500000
vt 0.953125 0.718750
vt 0.968750 0.718750
vt 0.968750 0.968750
vt 0.953125 0.968750
vt 0.953125 0.718750
vt 0.968750 0.718750
vt 0.968750 0.968750
vt 0.953125 0.968750
vt 0.953125 0.718750
vt 0.953125 0.968750
vt 0.968750 0.718750
vt 0.968750 0.968750
vt 0.968750 1.000000
vt 0.964844 0.992188
vt 0.957031 0.992188
vt 0.953125 1.000000
vt 0.964844 0.976562
vt 0.957031 0.976562
vt 0.968750 1.000000
vt 0.972656 0.992188
vt 0.980469 0.992188
vt 0.984375 1.000000
vt 0.968750 0.968750
vt 0.972656 0.976562
vt 0.980469 0.976562
vt 0.984375 0.968750
vt 0.980469 0.968750
vt 0.972656 0.968750
vt 0.972656 0.718750
vt 0.980469 0.718750
vt 0.972656 0.968750
vt 0.972656 0.718750
vt 0.972656 0.968750
vt 0.980469 0.968750
vt 0.980469 0.718750
vt 0.972656 0.718750
vt 0.980469 0.968750
vt 0.980469 0.718750
vt 0.000000 0.250000
vt 0.000000 0.500000
vt 0.375000 0.500000
vt 0.375000 0.250000
vt 0.000000 0.250000
vt 0.000000 0.500000
vt 0.375000 0.500000
vt 0.375000 0.250000
vn -1.0000 0.0000 0.0000
vn 0.0000 0.0000 -1.0000
vn 1.0000 0.0000 0.0000
vn 0.0000 0.0000 1.0000
vn 0.0000 0.9999 0.0160
vn -0.0160 0.9999 0.0000
vn 0.0160 0.9999 0.0000
vn 0.0000 0.9999 -0.0160
vn 0.0000 -1.0000 0.0000
vn 0.7071 0.0000 0.7071
vn -0.7071 0.0000 0.7071
vn 0.0000 -0.9976 -0.0693
vn 0.0693 -0.9976 0.0000
vn -0.0693 -0.9976 0.0000
vn 0.0000 -0.9976 0.0693
vn 0.0000 0.9986 -0.0532
vn -0.0532 0.9986 0.0000
vn 0.0532 0.9986 0.0000
vn 0.0000 0.9986 0.0532
vn -0.7071 0.0000 -0.7071
vn 0.7071 0.0000 -0.7071
vn 0.0000 1.0000 0.0000
s off
f 1/1/1 2/2/1 4/3/1 3/4/1
f 3/5/2 4/6/2 8/7/2 7/8/2
f 7/8/3 8/7/3 6/9/3 5/10/3
f 5/11/4 6/12/4 2/2/4 1/1/4
f 8/13/5 4/14/5 10/15/5 12/16/5
f 6/12/6 8/13/6 12/16/6 11/17/6
f 4/14/7 2/2/7 9/18/7 10/15/7
f 2/2/8 6/12/8 11/17/8 9/18/8
f 3/19/9 7/20/9 16/21/9 14/22/9
f 1/23/9 3/19/9 14/22/9 13/24/9
f 7/20/9 5/25/9 15/26/9 16/21/9
f 5/25/9 1/23/9 13/24/9 15/26/9
f 12/27/1 16/28/1 15/29/1 11/30/1
f 10/31/4 14/32/4 16/28/4 12/27/4
f 9/33/3 13/34/3 14/35/3 10/36/3
f 11/37/2 15/38/2 13/34/2 9/33/2
f 17/39/10 18/40/10 20/41/10 19/42/10
f 21/43/11 22/44/11 24/45/11 23/46/11
f 25/47/3 27/48/3 28/49/3 26/50/3
f 27/51/4 31/52/4 32/53/4 28/54/4
f 31/52/1 29/55/1 30/56/1 32/53/1
f 29/57/2 25/47/2 26/50/2 30/58/2
f 32/59/12 36/60/12 34/61/12 28/62/12
f 30/58/13 35/63/13 36/60/13 32/59/13
f 28/62/14 34/61/14 33/64/14 26/50/14
f 26/50/15 33/64/15 35/63/15 30/58/15
f 27/65/16 38/66/16 40/67/16 31/68/16
f 25/69/17 37/70/17 38/66/17 27/65/17
f 31/68/18 40/67/18 39/71/18 29/72/18
f 29/72/19 39/71/19 37/70/19 25/69/19
f 36/73/3 35/74/3 39/75/3 40/76/3
f 34/77/2 36/73/2 40/76/2 38/78/2
f 33/79/1 34/80/1 38/81/1 37/82/1
f 35/83/4 33/79/4 37/82/4 39/84/4
f 41/85/20 43/86/20 44/87/20 42/88/20
f 45/89/21 47/90/21 48/91/21 46/92/21
f 17/39/11 19/42/11 43/86/11 41/85/11
f 18/40/9 17/39/9 41/85/9 42/88/9
f 20/41/21 18/40/21 42/88/21 44/87/21
f 19/42/22 20/41/22 44/87/22 43/86/22
f 21/43/20 23/46/20 47/90/20 45/89/20
f 22/44/9 21/43/9 45/89/9 46/92/9
f 24/45/10 22/44/10 46/92/10 48/91/10
f 23/46/22 24/45/22 48/91/22 47/90/22
o small
v -1.060660 0.000000 1.060660
v 1.060660 0.000000 -1.060660
v -1.060660 1.000000 1.060660
v 1.060660 1.000000 -1.060660
v -1.060660 0.000000 -1.060660
v 1.060660 0.000000 1.060660
v -1.060660 1.000000 -1.060660
v 1.060660 1.000000 1.060660
v -0.031250 0.000000 0.031250
v -0.031250 0.500000 0.031250
v -0.031250 0.000000 -0.031250
v -0.031250 0.500000 -0.031250
v 0.031250 0.000000 0.031250
v 0.031250 0.500000 0.031250
v 0.031250 0.000000 -0.031250
v 0.031250 0.500000 -0.031250
v -1.067731 0.000000 1.053589
v 1.053589 0.000000 -1.067731
v -1.067731 1.000000 1.053589
v 1.053589 1.000000 -1.067731
v -1.050053 0.000000 -1.071267
v 1.071267 0.000000 1.050053
v -1.050053 1.000000 -1.071267
v 1.071267 1.000000 1.050054
v -0.022773 0.003005 0.022773
v -0.022773 0.496995 0.022773
v -0.025389 0.002797 -0.025389
v -0.025389 0.497203 -0.025389
v 0.025389 0.002797 0.025389
v 0.025389 0.497203 0.025389
v 0.022773 0.003005 -0.022773
v 0.022773 0.496995 -0.022773
vt 0.000000 0.000000
vt 0.375000 0.000000
vt 0.375000 0.250000
vt 0.000000 0.250000
vt 0.000000 0.000000
vt 0.375000 0.000000
vt 0.375000 0.250000
vt 0.000000 0.250000
vt 0.984375 0.859375
vt 0.984375 1.000000
vt 0.992188 1.000000
vt 0.992188 0.859375
vt 0.984375 0.859375
vt 0.984375 1.000000
vt 0.992188 1.000000
vt 0.992188 0.859375
vt 0.984375 1.000000
vt 0.984375 0.859375
vt 0.992188 0.859375
vt 0.992188 1.000000
vt 0.992188 1.000000
vt 1.000000 1.000000
vt 1.000000 0.984375
vt 0.992188 0.984375
vt 0.984375 0.984375
vt 0.992188 0.984375
vt 0.000000 0.000000
vt 0.000000 0.250000
vt 0.375000 0.250000
vt 0.375000 0.000000
vt 0.000000 0.000000
vt 0.000000 0.250000
vt 0.375000 0.250000
vt 0.375000 0.000000
vt 0.984375 0.859375
vt 0.992188 0.859375
vt 0.992188 1.000000
vt 0.984375 1.000000
vt 0.984375 0.859375
vt 0.992188 0.859375
vt 0.992188 1.000000
vt 0.984375 1.000000
vt 0.984375 0.859375
vt 0.984375 1.000000
vt 0.992188 0.859375
vt 0.992188 1.000000
vt 0.992188 1.000000
vt 0.992188 0.984375
vt 1.000000 0.984375
vt 1.000000 1.000000
vt 0.992188 0.984375
vt 0.984375 0.984375
vn 0.7071 0.0000 0.7071
vn -0.7071 0.0000 0.7071
vn -1.0000 0.0000 -0.0000
vn -0.0000 0.0000 -1.0000
vn 1.0000 -0.0000 0.0000
vn 0.0000 0.0000 1.0000
vn 0.0000 -1.0000 0.0000
vn 0.0000 1.0000 0.0000
vn -0.7071 0.0000 -0.7071
vn 0.7071 0.0000 -0.7071
vn 0.9985 0.0000 -0.0542
vn -0.0542 0.0000 0.9985
vn -0.9985 -0.0000 0.0542
vn 0.0542 -0.0000 -0.9985
s off
f 49/93/23 50/94/23 52/95/23 51/96/23
f 53/97/24 54/98/24 56/99/24 55/100/24
f 57/101/25 58/102/25 60/103/25 59/104/25
f 59/105/26 60/106/26 64/107/26 63/108/26
f 63/108/27 64/107/27 62/109/27 61/110/27
f 61/111/28 62/112/28 58/102/28 57/101/28
f 59/113/29 63/114/29 61/115/29 57/116/29
f 64/107/30 60/106/30 58/117/30 62/118/30
f 65/119/31 67/120/31 68/121/31 66/122/31
f 69/123/32 71/124/32 72/125/32 70/126/32
f 73/127/33 75/128/33 76/129/33 74/130/33
f 75/131/34 79/132/34 80/133/34 76/134/34
f 79/132/35 77/135/35 78/136/35 80/133/35
f 77/137/36 73/127/36 74/130/36 78/138/36
f 75/139/30 73/140/30 77/141/30 79/142/30
f 80/133/29 78/143/29 74/144/29 76/134/29
f 49/93/24 51/96/24 67/120/24 65/119/24
f 50/94/29 49/93/29 65/119/29 66/122/29
f 52/95/32 50/94/32 66/122/32 68/121/32
f 51/96/30 52/95/30 68/121/30 67/120/30
f 53/97/31 55/100/31 71/124/31 69/123/31
f 54/98/29 53/97/29 69/123/29 70/126/29
f 56/99/23 54/98/23 70/126/23 72/125/23
f 55/100/30 56/99/30 72/125/30 71/124/30
o top
v -0.062500 0.000000 0.062500
v -0.062500 0.000000 -0.062500
v 0.062500 0.000000 0.062500
v 0.062500 0.000000 -0.062500
v -1.060660 0.000000 1.060660
v 1.060660 0.000000 -1.060660
v -1.060660 1.000000 1.060660
v 1.060660 1.000000 -1.060660
v -1.060660 0.000000 -1.060660
v 1.060660 0.000000 1.060660
v -1.060660 1.000000 -1.060660
v 1.060660 1.000000 1.060660
v -0.062500 -0.002500 0.062500
v -0.062500 -0.002500 -0.062500
v 0.062500 -0.002500 0.062500
v 0.062500 -0.002500 -0.062500
v -1.061102 0.000000 1.060218
v 1.060218 0.000000 -1.061102
v -1.061102 1.000000 1.060218
v 1.060218 1.000000 -1.061102
v -1.060218 0.000000 -1.061102
v 1.061102 0.000000 1.060218
v -1.060218 1.000000 -1.061102
v 1.061102 1.000000 1.060218
vt 0.984375 1.000000
vt 0.984375 0.984375
vt 0.992188 0.984375
vt 0.992188 1.000000
vt 0.000000 0.750000
vt 0.375000 0.750000
vt 0.375000 1.000000
vt 0.000000 1.000000
vt 0.000000 0.750000
vt 0.375000 0.750000
vt 0.375000 1.000000
vt 0.000000 1.000000
vt 0.984375 1.000000
vt 0.992188 1.000000
vt 0.992188 0.984375
vt 0.984375 0.984375
vt 0.000000 0.750000
vt 0.000000 1.000000
vt 0.375000 1.000000
vt 0.375000 0.750000
vt 0.000000 0.750000
vt 0.000000 1.000000
vt 0.375000 1.000000
vt 0.375000 0.750000
vn 0.0000 1.0000 0.0000
vn 0.7071 0.0000 0.7071
vn -0.7071 0.0000 0.7071
vn 0.0000 -1.0000 0.0000
vn -0.7071 0.0000 -0.7071
vn 0.7071 0.0000 -0.7071
vn 0.0000 0.0000 -1.0000
vn 1.0000 0.0000 0.0000
vn 0.0000 0.0000 1.0000
vn -1.0000 0.0000 0.0000
s off
f 82/145/37 81/146/37 83/147/37 84/148/37
f 85/149/38 86/150/38 88/151/38 87/152/38
f 89/153/39 90/154/39 92/155/39 91/156/39
f 94/157/40 96/158/40 95/159/40 93/160/40
f 97/161/41 99/162/41 100/163/41 98/164/41
f 101/165/42 103/166/42 104/167/42 102/168/42
f 82/145/43 84/148/43 96/158/43 94/157/43
f 84/148/44 83/147/44 95/159/44 96/158/44
f 83/147/45 81/146/45 93/160/45 95/159/45
f 81/146/46 82/145/46 94/157/46 93/160/46
f 85/149/39 87/152/39 99/162/39 97/161/39
f 86/150/40 85/149/40 97/161/40 98/164/40
f 88/151/42 86/150/42 98/164/42 100/163/42
f 87/152/37 88/151/37 100/163/37 99/162/37
f 89/153/41 91/156/41 103/166/41 101/165/41
f 90/154/40 89/153/40 101/165/40 102/168/40
f 92/155/38 90/154/38 102/168/38 104/167/38
f 91/156/37 92/155/37 104/167/37 103/166/37
o topOverlay
v -1.060660 0.000000 -1.060660
v 1.060660 0.000000 1.060660
v -1.060660 1.000000 -1.060660
v 1.060660 1.000000 1.060660
v -1.060660 0.000000 1.060660
v 1.060660 0.000000 -1.060660
v -1.060660 1.000000 1.060660
v 1.060660 1.000000 -1.060660
v -1.053589 0.000000 -1.067731
v 1.067731 0.000000 1.053589
v -1.053589 1.000000 -1.067731
v 1.067731 1.000000 1.053589
v -1.071267 0.000000 1.050053
v 1.050053 0.000000 -1.071267
v -1.071267 1.000000 1.050054
v 1.050053 1.000000 -1.071267
vt 0.375000 0.750000
vt 0.750000 0.750000
vt 0.750000 1.000000
vt 0.375000 1.000000
vt 0.375000 0.750000
vt 0.750000 0.750000
vt 0.750000 1.000000
vt 0.375000 1.000000
vt 0.375000 0.750000
vt 0.375000 1.000000
vt 0.750000 1.000000
vt 0.750000 0.750000
vt 0.375000 0.750000
vt 0.375000 1.000000
vt 0.750000 1.000000
vt 0.750000 0.750000
vn -0.7071 0.0000 0.7071
vn 0.7071 0.0000 0.7071
vn 0.7071 0.0000 -0.7071
vn -0.7071 0.0000 -0.7071
vn 0.0000 -1.0000 0.0000
vn 0.0000 1.0000 0.0000
s off
f 105/169/47 106/170/47 108/171/47 107/172/47
f 109/173/48 110/174/48 112/175/48 111/176/48
f 113/177/49 115/178/49 116/179/49 114/180/49
f 117/181/50 119/182/50 120/183/50 118/184/50
f 105/169/50 107/172/50 115/178/50 113/177/50
f 106/170/51 105/169/51 113/177/51 114/180/51
f 108/171/48 106/170/48 114/180/48 116/179/48
f 107/172/52 108/171/52 116/179/52 115/178/52
f 109/173/47 111/176/47 119/182/47 117/181/47
f 110/174/51 109/173/51 117/181/51 118/184/51
f 112/175/49 110/174/49 118/184/49 120/183/49
f 111/176/52 112/175/52 120/183/52 119/182/52
o middle
v -0.062500 0.000000 0.062500
v -0.062500 1.000000 0.062500
v -0.062500 0.000000 -0.062500
v -0.062500 1.000000 -0.062500
v 0.062500 0.000000 0.062500
v 0.062500 1.000000 0.062500
v 0.062500 0.000000 -0.062500
v 0.062500 1.000000 -0.062500
v -0.031250 0.999500 0.031250
v -0.031250 0.999500 -0.031250
v 0.031250 0.999500 0.031250
v 0.031250 0.999500 -0.031250
v -0.031250 0.000000 0.031250
v -0.031250 0.000000 -0.031250
v 0.031250 0.000000 0.031250
v 0.031250 0.000000 -0.031250
v -1.060660 0.000000 1.060660
v 1.060660 0.000000 -1.060660
v -1.060660 1.000000 1.060660
v 1.060660 1.000000 -1.060660
v -1.060660 0.000000 -1.060660
v 1.060660 0.000000 1.060660
v -1.060660 1.000000 -1.060660
v 1.060660 1.000000 1.060660
v -0.062139 0.002887 0.062139
v -0.062139 0.997111 0.062139
v -0.062139 0.002887 -0.062139
v -0.062139 0.997111 -0.062139
v 0.062139 0.002887 0.062139
v 0.062139 0.997111 0.062139
v 0.062139 0.002887 -0.062139
v 0.062139 0.997111 -0.062139
v -0.031439 0.994980 0.031439
v -0.031439 0.994980 -0.031439
v 0.031439 0.994980 0.031439
v 0.031439 0.994980 -0.031439
v -0.031438 0.004523 0.031438
v -0.031438 0.004523 -0.031438
v 0.031438 0.004523 0.031438
v 0.031438 0.004523 -0.031438
v -1.061102 0.000000 1.060218
v 1.060218 0.000000 -1.061102
v -1.061102 1.000000 1.060218
v 1.060218 1.000000 -1.061102
v -1.060218 0.000000 -1.061102
v 1.061102 0.000000 1.060218
v -1.060218 1.000000 -1.061102
v 1.061102 1.000000 1.060218
vt 0.953125 0.718750
vt 0.953125 0.968750
vt 0.968750 0.968750
vt 0.968750 0.718750
vt 0.953125 0.718750
vt 0.953125 0.968750
vt 0.968750 0.968750
vt 0.968750 0.718750
vt 0.953125 0.968750
vt 0.953125 0.718750
vt 0.968750 0.718750
vt 0.968750 0.968750
vt 0.968750 1.000000
vt 0.953125 1.000000
vt 0.957031 0.992188
vt 0.964844 0.992188
vt 0.964844 0.976562
vt 0.957031 0.976562
vt 0.968750 1.000000
vt 0.984375 1.000000
vt 0.980469 0.992188
vt 0.972656 0.992188
vt 0.968750 0.968750
vt 0.972656 0.976562
vt 0.984375 0.968750
vt 0.980469 0.976562
vt 0.980469 0.968750
vt 0.980469 0.718750
vt 0.972656 0.718750
vt 0.972656 0.968750
vt 0.972656 0.968750
vt 0.972656 0.718750
vt 0.972656 0.968750
vt 0.972656 0.718750
vt 0.980469 0.718750
vt 0.980469 0.968750
vt 0.980469 0.968750
vt 0.980469 0.718750
vt 0.000000 0.500000
vt 0.375000 0.500000
vt 0.375000 0.750000
vt 0.000000 0.750000
vt 0.000000 0.500000
vt 0.375000 0.500000
vt 0.375000 0.750000
vt 0.000000 0.750000
vt 0.953125 0.718750
vt 0.968750 0.718750
vt 0.968750 0.968750
vt 0.953125 0.968750
vt 0.953125 0.718750
vt 0.968750 0.718750
vt 0.968750 0.968750
vt 0.953125 0.968750
vt 0.953125 0.718750
vt 0.953125 0.968750
vt 0.968750 0.718750
vt 0.968750 0.968750
vt 0.968750 1.000000
vt 0.964844 0.992188
vt 0.957031 0.992188
vt 0.953125 1.000000
vt 0.964844 0.976562
vt 0.957031 0.976562
vt 0.968750 1.000000
vt 0.972656 0.992188
vt 0.980469 0.992188
vt 0.984375 1.000000
vt 0.968750 0.968750
vt 0.972656 0.976562
vt 0.980469 0.976562
vt 0.984375 0.968750
vt 0.980469 0.968750
vt 0.972656 0.968750
vt 0.972656 0.718750
vt 0.980469 0.718750
vt 0.972656 0.968750
vt 0.972656 0.718750
vt 0.972656 0.968750
vt 0.980469 0.968750
vt 0.980469 0.718750
vt 0.972656 0.718750
vt 0.980469 0.968750
vt 0.980469 0.718750
vt 0.000000 0.500000
vt 0.000000 0.750000
vt 0.375000 0.750000
vt 0.375000 0.500000
vt 0.000000 0.500000
vt 0.000000 0.750000
vt 0.375000 0.750000
vt 0.375000 0.500000
vn -1.0000 0.0000 0.0000
vn 0.0000 0.0000 -1.0000
vn 1.0000 0.0000 0.0000
vn 0.0000 0.0000 1.0000
vn 0.0000 0.9999 0.0160
vn -0.0160 0.9999 0.0000
vn 0.0160 0.9999 0.0000
vn 0.0000 0.9999 -0.0160
vn 0.0000 -1.0000 0.0000
vn 0.7071 0.0000 0.7071
vn -0.7071 0.0000 0.7071
vn 0.0000 -0.9976 -0.0693
vn 0.0693 -0.9976 0.0000
vn -0.0693 -0.9976 0.0000
vn 0.0000 -0.9976 0.0693
vn 0.0000 0.9986 -0.0532
vn -0.0532 0.9986 0.0000
vn 0.0532 0.9986 0.0000
vn 0.0000 0.9986 0.0532
vn -0.7071 0.0000 -0.7071
vn 0.7071 0.0000 -0.7071
vn 0.0000 1.0000 0.0000
s off
f 121/185/53 122/186/53 124/187/53 123/188/53
f 123/189/54 124/190/54 128/191/54 127/192/54
f 127/192/55 128/191/55 126/193/55 125/194/55
f 125/195/56 126/196/56 122/186/56 121/185/56
f 128/197/57 124/198/57 130/199/57 132/200/57
f 126/196/58 128/197/58 132/200/58 131/201/58
f 124/198/59 122/186/59 129/202/59 130/199/59
f 122/186/60 126/196/60 131/201/60 129/202/60
f 123/203/61 127/204/61 136/205/61 134/206/61
f 121/207/61 123/203/61 134/206/61 133/208/61
f 127/204/61 125/209/61 135/210/61 136/205/61
f 125/209/61 121/207/61 133/208/61 135/210/61
f 132/211/53 136/212/53 135/213/53 131/214/53
f 130/215/56 134/216/56 136/212/56 132/211/56
f 129/217/55 133/218/55 134/219/55 130/220/55
f 131/221/54 135/222/54 133/218/54 129/217/54
f 137/223/62 138/224/62 140/225/62 139/226/62
f 141/227/63 142/228/63 144/229/63 143/230/63
f 145/231/55 147/232/55 148/233/55 146/234/55
f 147/235/56 151/236/56 152/237/56 148/238/56
f 151/236/53 149/239/53 150/240/53 152/237/53
f 149/241/54 145/231/54 146/234/54 150/242/54
f 152/243/64 156/244/64 154/245/64 148/246/64
f 150/242/65 155/247/65 156/244/65 152/243/65
f 148/246/66 154/245/66 153/248/66 146/234/66
f 146/234/67 153/248/67 155/247/67 150/242/67
f 147/249/68 158/250/68 160/251/68 151/252/68
f 145/253/69 157/254/69 158/250/69 147/249/69
f 151/252/70 160/251/70 159/255/70 149/256/70
f 149/256/71 159/255/71 157/254/71 145/253/71
f 156/257/55 155/258/55 159/259/55 160/260/55
f 154/261/54 156/257/54 160/260/54 158/262/54
f 153/263/53 154/264/53 158/265/53 157/266/53
f 155/267/56 153/263/56 157/266/56 159/268/56
f 161/269/72 163/270/72 164/271/72 162/272/72
f 165/273/73 167/274/73 168/275/73 166/276/73
f 137/223/63 139/226/63 163/270/63 161/269/63
f 138/224/61 137/223/61 161/269/61 162/272/61
f 140/225/73 138/224/73 162/272/73 164/271/73
f 139/226/74 140/225/74 164/271/74 163/270/74
f 141/227/72 143/230/72 167/274/72 165/273/72
f 142/228/61 141/227/61 165/273/61 166/276/61
f 144/229/62 142/228/62 166/276/62 168/275/62
f 143/230/74 144/229/74 168/275/74 167/274/74
o middleOverlay
v -1.060660 0.000000 -1.060660
v 1.060660 0.000000 1.060660
v -1.060660 1.000000 -1.060660
v 1.060660 1.000000 1.060660
v -1.060660 0.000000 1.060660
v 1.060660 0.000000 -1.060660
v -1.060660 1.000000 1.060660
v 1.060660 1.000000 -1.060660
v -1.053589 0.000000 -1.067731
v 1.067731 0.000000 1.053589
v -1.053589 1.000000 -1.067731
v 1.067731 1.000000 1.053589
v -1.071267 0.000000 1.050053
v 1.050053 0.000000 -1.071267
v -1.071267 1.000000 1.050054
v 1.050053 1.000000 -1.071267
vt 0.375000 0.500000
vt 0.750000 0.500000
vt 0.750000 0.750000
vt 0.375000 0.750000
vt 0.375000 0.500000
vt 0.750000 0.500000
vt 0.750000 0.750000
vt 0.375000 0.750000
vt 0.375000 0.500000
vt 0.375000 0.750000
vt 0.750000 0.750000
vt 0.750000 0.500000
vt 0.375000 0.500000
vt 0.375000 0.750000
vt 0.750000 0.750000
vt 0.750000 0.500000
vn -0.7071 0.0000 0.7071
vn 0.7071 0.0000 0.7071
vn 0.7071 0.0000 -0.7071
vn -0.7071 0.0000 -0.7071
vn 0.0000 -1.0000 0.0000
vn 0.0000 1.0000 0.0000
s off
f 169/277/75 170/278/75 172/279/75 171/280/75
f 173/281/76 174/282/76 176/283/76 175/284/76
f 177/285/77 179/286/77 180/287/77 178/288/77
f 181/289/78 183/290/78 184/291/78 182/292/78
f 169/277/78 171/280/78 179/286/78 177/285/78
f 170/278/79 169/277/79 177/285/79 178/288/79
f 172/279/76 170/278/76 178/288/76 180/287/76
f 171/280/80 172/279/80 180/287/80 179/286/80
f 173/281/75 175/284/75 183/290/75 181/289/75
f 174/282/79 173/281/79 181/289/79 182/292/79
f 176/283/77 174/282/77 182/292/77 184/291/77
f 175/284/80 176/283/80 184/291/80 183/290/80
o bottomOverlay
v -1.060660 0.000000 -1.060660
v 1.060660 0.000000 1.060660
v -1.060660 1.000000 -1.060660
v 1.060660 1.000000 1.060660
v -1.060660 0.000000 1.060660
v 1.060660 0.000000 -1.060660
v -1.060660 1.000000 1.060660
v 1.060660 1.000000 -1.060660
v -1.053589 0.000000 -1.067731
v 1.067731 0.000000 1.053589
v -1.053589 1.000000 -1.067731
v 1.067731 1.000000 1.053589
v -1.071267 0.000000 1.050053
v 1.050053 0.000000 -1.071267
v -1.071267 1.000000 1.050054
v 1.050053 1.000000 -1.071267
vt 0.375000 0.250000
vt 0.750000 0.250000
vt 0.750000 0.500000
vt 0.375000 0.500000
vt 0.375000 0.250000
vt 0.750000 0.250000
vt 0.750000 0.500000
vt 0.375000 0.500000
vt 0.375000 0.250000
vt 0.375000 0.500000
vt 0.750000 0.500000
vt 0.750000 0.250000
vt 0.375000 0.250000
vt 0.375000 0.500000
vt 0.750000 0.500000
vt 0.750000 0.250000
vn -0.7071 0.0000 0.7071
vn 0.7071 0.0000 0.7071
vn 0.7071 0.0000 -0.7071
vn -0.7071 0.0000 -0.7071
vn 0.0000 -1.0000 0.0000
vn 0.0000 1.0000 0.0000
s off
f 185/293/81 186/294/81 188/295/81 187/296/81
f 189/297/82 190/298/82 192/299/82 191/300/82
f 193/301/83 195/302/83 196/303/83 194/304/83
f 197/305/84 199/306/84 200/307/84 198/308/84
f 185/293/84 187/296/84 195/302/84 193/301/84
f 186/294/85 185/293/85 193/301/85 194/304/85
f 188/295/82 186/294/82 194/304/82 196/303/82
f 187/296/86 188/295/86 196/303/86 195/302/86
f 189/297/81 191/300/81 199/306/81 197/305/81
f 190/298/85 189/297/85 197/305/85 198/308/85
f 192/299/83 190/298/83 198/308/83 200/307/83
f 191/300/86 192/299/86 200/307/86 199/306/86
o smallOverlay
v -1.060660 0.000000 -1.060660
v 1.060660 0.000000 1.060660
v -1.060660 1.000000 -1.060660
v 1.060660 1.000000 1.060660
v -1.060660 0.000000 1.060660
v 1.060660 0.000000 -1.060660
v -1.060660 1.000000 1.060660
v 1.060660 1.000000 -1.060660
v -1.053589 0.000000 -1.067731
v 1.067731 0.000000 1.053589
v -1.053589 1.000000 -1.067731
v 1.067731 1.000000 1.053589
v -1.071267 0.000000 1.050053
v 1.050053 0.000000 -1.071267
v -1.071267 1.000000 1.050054
v 1.050053 1.000000 -1.071267
vt 0.375000 0.000000
vt 0.750000 0.000000
vt 0.750000 0.250000
vt 0.375000 0.250000
vt 0.375000 0.000000
vt 0.750000 0.000000
vt 0.750000 0.250000
vt 0.375000 0.250000
vt 0.375000 0.000000
vt 0.375000 0.250000
vt 0.750000 0.250000
vt 0.750000 0.000000
vt 0.375000 0.000000
vt 0.375000 0.250000
vt 0.750000 0.250000
vt 0.750000 0.000000
vn -0.7071 0.0000 0.7071
vn 0.7071 0.0000 0.7071
vn 0.7071 0.0000 -0.7071
vn -0.7071 0.0000 -0.7071
vn 0.0000 -1.0000 0.0000
vn 0.0000 1.0000 0.0000
s off
f 201/309/87 202/310/87 204/311/87 203/312/87
f 205/313/88 206/314/88 208/315/88 207/316/88
f 209/317/89 211/318/89 212/319/89 210/320/89
f 213/321/90 215/322/90 216/323/90 214/324/90
f 201/309/90 203/312/90 211/318/90 209/317/90
f 202/310/91 201/309/91 209/317/91 210/320/91
f 204/311/88 202/310/88 210/320/88 212/319/88
f 203/312/92 204/311/92 212/319/92 211/318/92
f 205/313/87 207/316/87 215/322/87 213/321/87
f 206/314/91 205/313/91 213/321/91 214/324/91
f 208/315/89 206/314/89 214/324/89 216/323/89
f 207/316/92 208/315/92 216/323/92 215/322/92
